<?xml version="1.0" encoding="UTF-8" standalone="no"?>
<svg
   xmlns:dc="http://purl.org/dc/elements/1.1/"
   xmlns:cc="http://web.resource.org/cc/"
   xmlns:rdf="http://www.w3.org/1999/02/22-rdf-syntax-ns#"
   xmlns:svg="http://www.w3.org/2000/svg"
   xmlns="http://www.w3.org/2000/svg"
   xmlns:xlink="http://www.w3.org/1999/xlink"
   id="svg2"
   width="400pt"
   height="144pt"
   version="1.0">
  <path
     style="fill:none;fill-opacity:0.75;fill-rule:evenodd;stroke:#000000;stroke-width:7.5;stroke-linecap:round;stroke-linejoin:miter;stroke-opacity:1;stroke-miterlimit:4;stroke-dasharray:none"
     d="M 72,51 L 185,51"
     id="path1316" />
  <use
     x="0"
     y="0"
     xlink:href="#path1316"
     id="use1318"
     transform="translate(0,78)"
     width="500"
     height="180" />
  <use
     x="0"
     y="0"
     xlink:href="#path1316"
     id="use2208"
     transform="translate(196.5757,39)"
     width="500"
     height="180" />
  <path
     id="rect2193"
     style="fill:#ffffff;fill-opacity:1;fill-rule:evenodd;stroke:#000000;stroke-width:7.5;stroke-linecap:butt;stroke-linejoin:round;stroke-miterlimit:4;stroke-dashoffset:0;stroke-opacity:1"
     d="M 135.67366,169.24997 C 135.54865,169.25544 173.11664,161.81425 173.11664,89.999999 C 173.11664,17.478772 135.6709,10.749695 135.67366,10.750027 C 196.16084,18.014053 235.55464,7.7267425 277.18432,90.000005 C 246.14327,162.74602 205.43421,166.19896 135.67366,169.24997 z " />
  <path
     style="fill:#ffffff;fill-opacity:1;fill-rule:evenodd;stroke:#000000;stroke-width:7.5;stroke-linecap:round;stroke-linejoin:round;stroke-miterlimit:4;stroke-dasharray:none;stroke-dashoffset:0;stroke-opacity:1"
     id="path2247"
     d="M 305.47014 89.843887 A 20.152544 20.152544 0 1 1  265.16505,89.843887 A 20.152544 20.152544 0 1 1  305.47014 89.843887 z"
     transform="translate(12.64507,0.156113)" />
</svg>
